<?xml version="1.0" standalone="no"?>
<!DOCTYPE svg PUBLIC "-//W3C//DTD SVG 20010904//EN"
 "http://www.w3.org/TR/2001/REC-SVG-20010904/DTD/svg10.dtd">
<svg version="1.0" xmlns="http://www.w3.org/2000/svg"
 width="64.000000pt" height="64.000000pt" viewBox="0 0 64.000000 64.000000"
 preserveAspectRatio="xMidYMid meet">

<g transform="translate(0.000000,64.000000) scale(0.100000,-0.100000)"
fill="#000000" stroke="none">
<path d="M78 613 c-12 -14 -17 -53 -21 -173 -3 -85 -12 -193 -22 -239 -25
-125 -33 -121 232 -121 199 0 214 1 233 20 11 11 22 30 25 42 3 13 10 43 16
68 5 25 13 125 16 223 6 178 10 196 41 165 17 -17 17 -539 0 -556 -9 -9 -78
-12 -250 -12 -152 0 -238 -4 -238 -10 0 -6 88 -10 243 -10 224 0 245 2 260 18
15 16 17 52 17 294 0 254 -1 276 -18 291 -16 15 -50 17 -269 17 -225 0 -251
-2 -265 -17z m198 -298 c19 -29 36 -32 54 -9 16 19 65 15 65 -6 0 -8 -10 -16
-22 -18 -12 -2 -27 -10 -33 -18 -19 -22 -51 -17 -82 13 l-28 27 -16 -22 c-17
-24 -44 -30 -44 -8 0 7 9 25 21 40 26 34 63 34 85 1z m170 -36 c10 -17 -13
-36 -27 -22 -12 12 -4 33 11 33 5 0 12 -5 16 -11z"/>
</g>
</svg>
